<svg height="200" viewBox="0 0 200 200" width="200" xmlns="http://www.w3.org/2000/svg" xmlns:xlink="http://www.w3.org/1999/xlink"><radialGradient id="a" cx="-254.81979" cy="705.83588" gradientTransform="matrix(1.7532871 1.0122799 -1.0122799 1.7532871 1391.3123 -834.79387)" gradientUnits="userSpaceOnUse" r="82.978401"><stop offset="0" stop-color="#4387fd"/><stop offset=".65" stop-color="#3078f0"/><stop offset=".9099" stop-color="#2b72ea"/><stop offset="1" stop-color="#286ee6"/></radialGradient><radialGradient id="b" cx="-254.8174" cy="705.83691" gradientTransform="matrix(1.7532871 1.0122799 -1.0122799 1.7532871 1391.3123 -834.79387)" gradientUnits="userSpaceOnUse" r="82.973"><stop offset="0" stop-color="#ffd24d"/><stop offset="1" stop-color="#f6c338"/></radialGradient><g stroke-width=".620193"><path d="m108.80179 166.80538-15.00869-25.98611 28.09477-48.685191 15.00868 25.986111z" fill="#0da960"/><path d="m108.80179 166.80538 15.00868-25.98611h56.18953l-15.00868 25.98611z" fill="url(#a)"/><path d="m180 140.81927h-30.01737l-28.09476-48.685191h30.01736z" fill="url(#b)"/><path d="m136.89655 140.81927h-13.08608l6.51203-11.34954-21.52071 37.33565z" fill="#2d6fdd"/><path d="m149.98263 140.81927h30.01737l-36.5294-11.34954z" fill="#e5b93c"/><path d="m130.3225 129.46973 6.57405-11.34954-15.00868-25.986111z" fill="#0c9b57"/></g><path d="m34.260219 48.308552c2.681384 2.17831 3.687257 2.01209 8.722133 1.6762l47.467308-2.850221c1.00684 0 .16953-1.004355-.16608-1.171269l-7.88331-5.699c-1.51054-1.172652-3.52297-2.515658-7.38003-2.179738l-45.962632 3.352383c-1.676204.166221-2.011058 1.004286-1.343414 1.676131zm2.849881 11.062118v49.94388c0 2.68421 1.341348 3.68829 4.360345 3.52221l52.166495-3.01845c3.02052-.16608 3.35682-2.01229 3.35682-4.19274v-49.608683c0-2.176931-.83731-3.350956-2.68628-3.183356l-54.514618 3.183356c-2.011745.169045-2.682762 1.1754-2.682762 3.353783zm51.49865 2.67911c.33444 1.509979 0 3.01851-1.51259 3.188179l-2.51365.5008v36.871811c-2.18224 1.17292-4.19468 1.84346-5.87157 1.84346-2.68483 0-3.35722-.83869-5.36828-3.3513l-16.441077-25.810457v24.972387l5.202547 1.17403s0 3.01534-4.197364 3.01534l-11.571321.67122c-.336166-.67122 0-2.34584 1.173676-2.68145l3.019617-.83683v-33.017987l-4.192607-.335958c-.336162-1.509911.501214-3.686911 2.851259-3.85589l12.413455-.836759 17.110095 26.146414v-23.129965l-4.36241-.500731c-.33485-1.845869 1.00519-3.186183 2.68277-3.352404zm-63.410271-25.137894 47.808641-3.520669c5.87087-.503538 7.3814-.166241 11.07142 2.514273l15.26106 10.726172c2.51812 1.84449 3.3575 2.346666 3.3575 4.357383v58.829265c0 3.68691-1.34314 5.86736-6.03896 6.20091l-55.519795 3.35268c-3.524966.16815-5.202614-.33424-7.048618-2.68214l-11.238503-14.5813c-2.013807-2.683932-2.851224-4.691956-2.851224-7.041312v-52.291375c0-3.015066 1.343448-5.530025 5.198479-5.863887z" stroke-width=".689142"/></svg>