<?xml version="1.0" encoding="UTF-8" standalone="no"?>
<svg
   xmlns:dc="http://purl.org/dc/elements/1.1/"
   xmlns:cc="http://creativecommons.org/ns#"
   xmlns:rdf="http://www.w3.org/1999/02/22-rdf-syntax-ns#"
   xmlns:svg="http://www.w3.org/2000/svg"
   xmlns="http://www.w3.org/2000/svg"
   xmlns:sodipodi="http://sodipodi.sourceforge.net/DTD/sodipodi-0.dtd"
   xmlns:inkscape="http://www.inkscape.org/namespaces/inkscape"
   viewBox="0 0 579.99999 579.99999"
   version="1.1"
   id="svg28"
   width="580"
   height="580"
   inkscape:version="0.92.3 (2405546, 2018-03-11)"
   sodipodi:docname="logo.svg"
   inkscape:export-filename="/home/yegortimoshenko/Source/gitlab.com/serokell/notion_to_gdrive/logo.svg.png"
   inkscape:export-xdpi="137.14"
   inkscape:export-ydpi="137.14">
  <metadata
     id="metadata34">
    <rdf:RDF>
      <cc:Work
         rdf:about="">
        <dc:format>image/svg+xml</dc:format>
        <dc:type
           rdf:resource="http://purl.org/dc/dcmitype/StillImage" />
        <dc:title></dc:title>
      </cc:Work>
    </rdf:RDF>
  </metadata>
  <defs
     id="defs32" />
  <sodipodi:namedview
     pagecolor="#ffffff"
     bordercolor="#666666"
     borderopacity="1"
     objecttolerance="10"
     gridtolerance="10"
     guidetolerance="10"
     inkscape:pageopacity="0"
     inkscape:pageshadow="2"
     inkscape:window-width="1920"
     inkscape:window-height="1016"
     id="namedview30"
     showgrid="false"
     fit-margin-top="0"
     fit-margin-left="0"
     fit-margin-right="0"
     fit-margin-bottom="0"
     inkscape:zoom="0.49003322"
     inkscape:cx="-489.62801"
     inkscape:cy="42.789408"
     inkscape:window-x="0"
     inkscape:window-y="27"
     inkscape:window-maximized="1"
     inkscape:current-layer="svg28" />
  <radialGradient
     id="a"
     cx="-254.81979"
     cy="705.83588"
     gradientTransform="matrix(5.0845325,2.9356116,-2.9356116,5.0845325,4034.8057,-2420.9022)"
     gradientUnits="userSpaceOnUse"
     r="82.978401">
    <stop
       offset="0"
       stop-color="#4387fd"
       id="stop2" />
    <stop
       offset=".65"
       stop-color="#3078f0"
       id="stop4" />
    <stop
       offset=".9099"
       stop-color="#2b72ea"
       id="stop6" />
    <stop
       offset="1"
       stop-color="#286ee6"
       id="stop8" />
  </radialGradient>
  <radialGradient
     id="b"
     cx="-254.8174"
     cy="705.83691"
     gradientTransform="matrix(5.0845325,2.9356116,-2.9356116,5.0845325,4034.8057,-2420.9022)"
     gradientUnits="userSpaceOnUse"
     r="82.973">
    <stop
       offset="0"
       stop-color="#ffd24d"
       id="stop11" />
    <stop
       offset="1"
       stop-color="#f6c338"
       id="stop13" />
  </radialGradient>
  <path
     d="M 315.52518,483.73559 272,408.37588 353.47482,267.18883 397,342.54854 Z"
     id="path16"
     inkscape:connector-curvature="0"
     style="fill:#0da960;stroke-width:1.7985611" />
  <path
     d="m 315.52518,483.73559 43.52518,-75.35971 H 522 l -43.52518,75.35971 z"
     id="path18"
     inkscape:connector-curvature="0"
     style="fill:url(#a);stroke-width:1.7985611" />
  <path
     d="M 522,408.37588 H 434.94964 L 353.47482,267.18883 h 87.05036 z"
     id="path20"
     inkscape:connector-curvature="0"
     style="fill:url(#b);stroke-width:1.7985611" />
  <path
     d="m 397,408.37588 h -37.94964 l 18.88489,-32.91367 -62.41007,108.27338 z"
     id="path22"
     inkscape:connector-curvature="0"
     style="fill:#2d6fdd;stroke-width:1.7985611" />
  <path
     d="M 434.94964,408.37588 H 522 L 416.06475,375.46221 Z"
     id="path24"
     inkscape:connector-curvature="0"
     style="fill:#e5b93c;stroke-width:1.7985611" />
  <path
     d="M 377.93525,375.46221 397,342.54854 353.47482,267.18883 Z"
     id="path26"
     inkscape:connector-curvature="0"
     style="fill:#0c9b57;stroke-width:1.7985611" />
  <path
     inkscape:connector-curvature="0"
     d="m 99.354634,140.0948 c 7.776016,6.3171 10.693046,5.83506 25.294186,4.86098 l 137.65519,-8.26564 c 2.91983,0 0.49164,-2.91263 -0.48163,-3.39668 l -22.8616,-16.5271 c -4.38055,-3.40069 -10.2166,-7.29541 -21.40207,-6.32124 l -133.291646,9.72191 c -4.860992,0.48204 -5.832068,2.91243 -3.895902,4.86078 z m 8.264656,32.08014 v 144.83725 c 0,7.78422 3.88991,10.69604 12.645,10.2144 l 151.28285,-8.75348 c 8.75948,-0.48164 9.73475,-5.83566 9.73475,-12.15896 V 162.44897 c 0,-6.3131 -2.42819,-9.71777 -7.7902,-9.23173 l -158.09239,9.23173 c -5.83406,0.49023 -7.78001,3.40866 -7.78001,9.72597 z m 149.34609,7.76942 c 0.96988,4.37894 0,8.75368 -4.38653,9.24572 l -7.28957,1.45232 v 106.92826 c -6.3285,3.40147 -12.16456,5.34602 -17.02754,5.34602 -7.78601,0 -9.73596,-2.43219 -15.56802,-9.71877 l -47.67913,-74.85032 v 72.41993 l 15.08738,3.40467 c 0,0 0,8.74449 -12.17235,8.74449 l -33.55683,1.94655 c -0.97488,-1.94655 0,-6.80294 3.40366,-7.77621 l 8.75689,-2.4268 v -95.75217 l -12.15856,-0.97428 c -0.97487,-4.37874 1.45352,-10.69204 8.26865,-11.18208 l 35.99902,-2.4266 49.61929,75.8246 v -67.0769 l -12.65099,-1.45212 c -0.97108,-5.35302 2.91503,-9.23993 7.78001,-9.72197 z M 73.075588,107.04447 211.72064,96.834531 c 17.02554,-1.46026 21.40608,-0.4821 32.10712,7.291389 l 44.25707,31.1059 c 7.30257,5.34902 9.73676,6.80533 9.73676,12.63641 v 170.60488 c 0,10.69204 -3.8951,17.01534 -17.51297,17.98262 L 119.3012,346.1785 c -10.2224,0.48763 -15.08758,-0.96929 -20.440992,-7.77821 L 66.26855,296.11454 C 60.42851,288.33113 58,282.50786 58,275.69473 V 124.04974 c 0,-8.74369 3.895998,-16.03707 15.075588,-17.00527 z"
     id="path2"
     style="stroke-width:1.99851322" />
</svg>
